Simulation
nRows=36
nColumns=15
endheader
time  TH_x TH_y TH_z SC_y  SC_z  SC_x  AC_y  AC_z  AC_x  GH_y  GH_z  GH_yy  EL_x  PS_y
0.0  0.000000  0.000000  0.000000  -32.035655234960196  -0.48438329602177227  3.32660093297026  45.427150999624764  7.161312880563711  -5.018046063382382  -5.279066345658946  0.09255605553654477  22.50501824250174  22.39224367097386  0.000000
0.03  0.000000  0.000000  0.000000  -31.725312801793272  0.22535122933877066  2.974689892507489  44.38438184982708  7.395469495486081  -4.618626626780037  -4.58379953319269  0.12110297661487146  23.192695109367747  22.353654064210815  0.000000
0.06  0.000000  0.000000  0.000000  -31.185392804987334  0.2224172501784447  2.5037816840951934  42.65897021933906  7.650349134848573  -4.264582326997793  -3.972324915600299  0.28259978443411127  23.799087413253464  22.44164753566138  0.000000
0.09  0.000000  0.000000  0.000000  -30.87648955808208  -0.1257644847544961  2.0849123806870167  41.73581465146283  7.920857927857722  -4.0721766637565375  -3.4693133899266044  0.501941974375163  24.319401407221935  22.752550421918627  0.000000
0.12  0.000000  0.000000  0.000000  -30.931869290924812  -0.3754464297737283  1.9785315359614368  41.687051931112435  7.922445558465914  -4.012000005464925  -3.170772836512691  0.7293648182677758  24.649352426096126  23.032121628428595  0.000000
0.15  0.000000  0.000000  0.000000  -31.261308838826697  -0.35054620949241994  2.0664880385418027  41.908507475016016  7.555100957080796  -3.911150910693586  -3.0045572475872744  1.249226811647323  24.830792632414717  23.230606661620005  0.000000
0.18  0.000000  0.000000  0.000000  -31.60726112225427  -0.28049524928773845  2.115343066735309  42.04346600354166  7.099143021682818  -3.7687733547745896  -2.9876316399759903  2.2198409652954783  24.830481563709128  23.351296960053205  0.000000
0.21  0.000000  0.000000  0.000000  -31.856217331771322  -0.2432092732268052  2.135459484591093  42.139300849449256  6.686015876409648  -3.6697945351657175  -3.110112604309492  3.5850816840459183  24.648352875518846  23.455425397497102  0.000000
0.24  0.000000  0.000000  0.000000  -32.02220835686437  -0.14947919831985412  2.1641896070500546  42.20788219870242  6.3032502108107105  -3.5563593697374905  -3.34066501208394  5.264266138499813  24.302125627616682  23.63880181961015  0.000000
0.27  0.000000  0.000000  0.000000  -32.18200850940506  -0.012591397656553524  2.257536916279709  42.37331949377934  5.9260035329798555  -3.3791778529328584  -3.721283449310886  7.241728194721773  23.73903369782135  23.861160504150618  0.000000
0.3  0.000000  0.000000  0.000000  -32.398370548984225  0.12082728591039928  2.4536218693532157  42.729454311305524  5.561078100753625  -3.13537928582028  -4.3016850291096835  9.518462683283923  22.917000781936185  24.10950985157718  0.000000
0.32999999999999996  0.000000  0.000000  0.000000  -32.66059043253672  0.22546247370990036  2.7539343618928123  43.24863657820351  5.23443670383012  -2.8645221134394983  -5.089613171960645  12.079516276054337  21.85822746633283  24.40599688397607  0.000000
0.36  0.000000  0.000000  0.000000  -32.88744944289344  0.32074508290189396  3.100537314638569  43.78711602475878  5.0045493268777514  -2.6274826791942965  -5.97066109784498  14.86193061487668  20.652165961333385  24.81631049554579  0.000000
0.39  0.000000  0.000000  0.000000  -33.03317314194479  0.45190483698277556  3.438154458511911  44.20891746244478  4.930055564013693  -2.4539200410987645  -6.698238600620098  17.740911759862488  19.342531406925204  25.301019733244615  0.000000
0.42  0.000000  0.000000  0.000000  -33.12539640799885  0.6343863600736918  3.7493557874746  44.472734156602925  5.057314401195966  -2.343101582189258  -7.028352015269514  20.570348119098814  17.834418648486473  25.709913325971176  0.000000
0.44999999999999996  0.000000  0.000000  0.000000  -33.209095912161736  0.8604020666708175  4.036417211043008  44.598882727235825  5.394644957639707  -2.2777011150565514  -6.83566945634063  23.259561514360808  16.023610887080615  25.897977588683027  0.000000
0.48  0.000000  0.000000  0.000000  -33.289543703052935  1.1138288626615662  4.307295428251263  44.60820783268162  5.909533032028905  -2.252831238452485  -6.177870766259706  25.80582878111194  13.952865363045102  25.829651091538647  0.000000
0.51  0.000000  0.000000  0.000000  -33.347044818827214  1.3790585420229529  4.57160098983002  44.515293519433634  6.552264147406601  -2.2732014830525857  -5.242594413008337  28.260887458089577  11.828152275990593  25.559362457584534  0.000000
0.54  0.000000  0.000000  0.000000  -33.37217096056516  1.6530016473047173  4.837208264531763  44.3416898980412  7.276026461859954  -2.3269996774098036  -4.2263549657267845  30.664847356842646  9.889069553601402  25.167166645146743  0.000000
0.57  0.000000  0.000000  0.000000  -33.370732024101606  1.9345619423703755  5.107057812392489  44.11636848616976  8.051810038710162  -2.3919781678564944  -3.2437325230587692  33.017120421939985  8.25509039408972  24.711835582065167  0.000000
0.6  0.000000  0.000000  0.000000  -33.3519329975285  2.217114305532376  5.375979048876762  43.85729552208512  8.873519789305428  -2.4520481206126323  -2.3172506566527247  35.28904918823013  6.901070919066384  24.22295316429907  0.000000
0.63  0.000000  0.000000  0.000000  -33.324100801263704  2.49547073289189  5.638009838909956  43.57031764888493  9.738101184073637  -2.4968829222449145  -1.4240098285615133  37.45050120334783  5.736269007347522  23.711786319547958  0.000000
0.6599999999999999  0.000000  0.000000  0.000000  -33.298272674451674  2.771668527541564  5.895034225806243  43.26257843936425  10.636198956426478  -2.5153812841219354  -0.5537474685662763  39.47540195457327  4.694312595391424  23.193909497215667  0.000000
0.69  0.000000  0.000000  0.000000  -33.29272277334618  3.050095739485293  6.153710994091415  42.95113106523434  11.561695231113857  -2.489796078089343  0.2669290879981363  41.339849503505526  3.7697321901160468  22.69705257273891  0.000000
0.72  0.000000  0.000000  0.000000  -33.32542243746687  3.32895821550816  6.424703292621849  42.66110995800347  12.520205757082016  -2.4051093600506586  0.9857728077371206  43.02123783766192  2.993479273441349  22.254280842994454  0.000000
0.75  0.000000  0.000000  0.000000  -33.415101221612325  3.607578510230862  6.717092935198968  42.4150847168794  13.515402146205835  -2.2444040468951303  1.5676518589948285  44.50648652712059  2.3852982554960485  21.886227939577342  0.000000
0.78  0.000000  0.000000  0.000000  -33.57144955048754  3.8830958784119316  7.028412109308809  42.21424586639055  14.545162221414989  -1.9987505743453513  2.0210336044367074  45.80079689625653  1.9262187289640926  21.59325432889409  0.000000
0.8099999999999999  0.000000  0.000000  0.000000  -33.79217147568265  4.148999882568378  7.348993897829561  42.03823757584114  15.598832401374898  -1.676394952627986  2.390246362857237  46.9257090864608  1.5668586622913152  21.357265074562292  0.000000
0.84  0.000000  0.000000  0.000000  -34.0707363211359  4.405982072661722  7.6746125159812975  41.863665924740694  16.652172664709433  -1.2907474837092188  2.7206948598366854  47.906512808352964  1.2601797211406158  21.15643811906435  0.000000
0.87  0.000000  0.000000  0.000000  -34.39733274885928  4.658743024039265  8.012685096994925  41.68338904477612  17.675679247765267  -0.8553507456623017  3.02557933483879  48.7666141642669  0.9937284473873035  20.974836022225336  0.000000
0.8999999999999999  0.000000  0.000000  0.000000  -34.76158274139275  4.914395351992659  8.377944627087562  41.51275403587627  18.642760044626286  -0.37464624238121463  3.276335222299887  49.522320673273  0.7943686220099886  20.80562045853662  0.000000
0.9299999999999999  0.000000  0.000000  0.000000  -35.15858419480431  5.1789923337456285  8.786870157546414  41.384323456628216  19.533706537840033  0.15276415341476546  3.4269883820469484  50.18354648455215  0.7034021766172565  20.647755065617645  0.000000
0.96  0.000000  0.000000  0.000000  -35.58487270892293  5.456494963571804  9.249635958457535  41.32715454054191  20.335699155146997  0.7300512818323991  3.443073778009751  50.758098444276506  0.7476442104285067  20.50253975005204  0.000000
0.99  0.000000  0.000000  0.000000  -36.03534352598867  5.746285362997009  9.76600849461288  41.35492481709608  21.04671073293733  1.355062509117077  3.320013782460459  51.253144024246374  0.9253873091979281  20.368771641972895  0.000000
1.02  0.000000  0.000000  0.000000  -36.50771420504581  6.0487947930412  10.327459820817428  41.46810049388283  21.66943803213113  2.028161413232547  3.077661563272089  51.67466110439345  1.2110177329257639  20.241780912030087  0.000000
1.05  0.000000  0.000000  0.000000  -36.994970466884844  6.36129308508163  10.934830551852345  41.652161289922375  22.19548953750649  2.730587103495696  2.7584164296718496  52.03154462603514  1.5663386660024947  20.117693615092676  0.000000
